<mxfile host="65bd71144e">
    <diagram id="PBJizIEcequ0NvO2lEaS" name="Page-1">
        <mxGraphModel dx="1634" dy="1058" grid="1" gridSize="10" guides="1" tooltips="1" connect="1" arrows="1" fold="1" page="1" pageScale="1" pageWidth="850" pageHeight="1100" math="0" shadow="0">
            <root>
                <mxCell id="0"/>
                <mxCell id="1" parent="0"/>
                <mxCell id="2" value="" style="rounded=0;whiteSpace=wrap;html=1;shadow=0;labelBackgroundColor=none;strokeColor=none;strokeWidth=3;fillColor=#e8edf0;fontSize=60;fontColor=#2F5B7C;align=left;" vertex="1" parent="1">
                    <mxGeometry x="20" y="20" width="2250" height="1598" as="geometry"/>
                </mxCell>
                <mxCell id="3" value="&lt;div style=&quot;font-size: 26px&quot;&gt;&lt;font style=&quot;font-size: 26px&quot;&gt;Customer Relationships&lt;/font&gt;&lt;/div&gt;&lt;div&gt;&lt;br&gt;&lt;/div&gt;&lt;div style=&quot;font-size: 14px;&quot;&gt;&lt;span style=&quot;font-family: &amp;quot;Segoe UI&amp;quot;; background-color: rgb(230, 230, 230);&quot;&gt;&lt;font style=&quot;font-size: 14px;&quot;&gt;Each of our customer segments expects a relationship built on trust, transparency, and continuous support, where they feel appreciated and understood. &lt;br&gt;&lt;br&gt;We have established these relationships by utilizing direct communication channels, including customer support and feedback systems, which enable us to interact effectively with our users and address their needs.&lt;/font&gt;&lt;/span&gt;&lt;/div&gt;&lt;div style=&quot;font-size: 14px;&quot;&gt;&lt;span style=&quot;font-family: &amp;quot;Segoe UI&amp;quot;; background-color: rgb(230, 230, 230);&quot;&gt;&lt;font style=&quot;font-size: 14px;&quot;&gt;&lt;br&gt;Although managing these relationships involves expenses associated with customer support and engagement initiatives, the investment is warranted by the long-term advantages of enhanced customer retention and satisfaction.&lt;/font&gt;&lt;/span&gt;&lt;br&gt;&lt;/div&gt;" style="rounded=0;whiteSpace=wrap;html=1;shadow=0;labelBackgroundColor=none;strokeColor=#e8edf0;strokeWidth=5;fillColor=#ffffff;fontSize=12;fontColor=#2F5B7C;align=left;verticalAlign=top;spacing=30;" vertex="1" parent="1">
                    <mxGeometry x="1360" y="207" width="420" height="450" as="geometry"/>
                </mxCell>
                <mxCell id="4" value="&lt;font&gt;&lt;font style=&quot;font-size: 30px;&quot;&gt;Key Partners&lt;/font&gt;&lt;br&gt;&lt;/font&gt;&lt;font style=&quot;font-size: 12px&quot;&gt;&lt;br&gt;&lt;/font&gt;&lt;div style=&quot;font-size: 14px;&quot;&gt;&lt;span id=&quot;docs-internal-guid-6a371170-7fff-9e41-d3ea-e62b93509eff&quot;&gt;&lt;p style=&quot;line-height:1.38;margin-top:0pt;margin-bottom:0pt;&quot; dir=&quot;ltr&quot;&gt;&lt;span style=&quot;font-family: Arial, sans-serif; color: rgb(0, 0, 0); font-variant-numeric: normal; font-variant-east-asian: normal; font-variant-alternates: normal; font-variant-position: normal; vertical-align: baseline; background-color: rgb(230, 230, 230);&quot;&gt;- Stock Image Platforms that will bid on and purchase reviewed photos, serving as a key revenue source for our platform.&lt;/span&gt;&lt;/p&gt;&lt;p style=&quot;line-height:1.38;margin-top:0pt;margin-bottom:0pt;&quot; dir=&quot;ltr&quot;&gt;&lt;span style=&quot;font-family: Arial, sans-serif; color: rgb(0, 0, 0); font-variant-numeric: normal; font-variant-east-asian: normal; font-variant-alternates: normal; font-variant-position: normal; vertical-align: baseline; background-color: rgb(230, 230, 230);&quot;&gt;- Photographers who will supply images for auction, benefiting from competitive bids to maximize their returns.&lt;/span&gt;&lt;/p&gt;&lt;p style=&quot;line-height:1.38;margin-top:0pt;margin-bottom:0pt;&quot; dir=&quot;ltr&quot;&gt;&lt;span style=&quot;font-family: Arial, sans-serif; color: rgb(0, 0, 0); font-variant-numeric: normal; font-variant-east-asian: normal; font-variant-alternates: normal; font-variant-position: normal; vertical-align: baseline; background-color: rgb(230, 230, 230);&quot;&gt;- Community Voters who will help identify top images through voting, driving demand and increasing photo value.&lt;/span&gt;&lt;/p&gt;&lt;p style=&quot;line-height:1.38;margin-top:0pt;margin-bottom:0pt;&quot; dir=&quot;ltr&quot;&gt;&lt;span style=&quot;font-family: Arial, sans-serif; color: rgb(0, 0, 0); font-variant-numeric: normal; font-variant-east-asian: normal; font-variant-alternates: normal; font-variant-position: normal; vertical-align: baseline; background-color: rgb(230, 230, 230);&quot;&gt;- Google API that will provide map infrastructure for location-based features, enhancing user experience.&lt;/span&gt;&lt;/p&gt;&lt;p style=&quot;line-height:1.38;margin-top:0pt;margin-bottom:0pt;&quot; dir=&quot;ltr&quot;&gt;&lt;span style=&quot;font-family: Arial, sans-serif; color: rgb(0, 0, 0); font-variant-numeric: normal; font-variant-east-asian: normal; font-variant-alternates: normal; font-variant-position: normal; vertical-align: baseline; background-color: rgb(230, 230, 230);&quot;&gt;- Bank APIs that will enable secure, fast, and reliable financial transactions between companies and photographers.&lt;/span&gt;&lt;/p&gt;&lt;p style=&quot;line-height:1.38;margin-top:0pt;margin-bottom:0pt;&quot; dir=&quot;ltr&quot;&gt;&lt;span style=&quot;font-family: Arial, sans-serif; color: rgb(0, 0, 0); font-variant-numeric: normal; font-variant-east-asian: normal; font-variant-alternates: normal; font-variant-position: normal; vertical-align: baseline; background-color: rgb(230, 230, 230);&quot;&gt;- Marketing Firms that will promote the platform and help attract photographers, companies, and voters.&lt;/span&gt;&lt;/p&gt;&lt;div&gt;&lt;span style=&quot;font-family: Arial, sans-serif; color: rgb(0, 0, 0); background-color: transparent; font-variant-numeric: normal; font-variant-east-asian: normal; font-variant-alternates: normal; font-variant-position: normal; vertical-align: baseline;&quot;&gt;&lt;br&gt;&lt;/span&gt;&lt;/div&gt;&lt;/span&gt;&lt;/div&gt;" style="rounded=0;whiteSpace=wrap;html=1;shadow=0;labelBackgroundColor=none;strokeColor=#e8edf0;strokeWidth=5;fillColor=#ffffff;fontSize=12;fontColor=#2F5B7C;align=left;verticalAlign=top;spacing=30;" vertex="1" parent="1">
                    <mxGeometry x="100" y="208" width="420" height="900" as="geometry"/>
                </mxCell>
                <mxCell id="5" value="&lt;font&gt;&lt;font style=&quot;font-size: 26px&quot;&gt;Key Activities&lt;/font&gt;&lt;br style=&quot;font-size: 12px&quot;&gt;&lt;/font&gt;&lt;font&gt;&lt;br style=&quot;font-size: 12px&quot;&gt;&lt;div&gt;What Key Activities do our Value Propositions require?&lt;/div&gt;&lt;div&gt;Our Distribution Channels?&lt;/div&gt;&lt;div&gt;Customer Relationships?&lt;/div&gt;&lt;div&gt;Revenue streams?&lt;/div&gt;&lt;div&gt;&lt;br&gt;&lt;/div&gt;&lt;/font&gt;&lt;div style=&quot;font-size: 10px&quot;&gt;&lt;div&gt;&lt;b&gt;Categories&lt;/b&gt;&lt;/div&gt;&lt;div&gt;Production&lt;/div&gt;&lt;div&gt;Problem Solving&lt;/div&gt;&lt;div&gt;Platform/Network&lt;/div&gt;&lt;/div&gt;&lt;div&gt;&lt;br&gt;&lt;/div&gt;" style="rounded=0;whiteSpace=wrap;html=1;shadow=0;labelBackgroundColor=none;strokeColor=#e8edf0;strokeWidth=5;fillColor=#ffffff;fontSize=12;fontColor=#2F5B7C;align=left;verticalAlign=top;spacing=30;" vertex="1" parent="1">
                    <mxGeometry x="520" y="208" width="420" height="450" as="geometry"/>
                </mxCell>
                <mxCell id="6" value="&lt;div&gt;&lt;font style=&quot;font-size: 26px&quot;&gt;Key Resources&lt;/font&gt;&lt;/div&gt;&lt;div&gt;&lt;br&gt;&lt;/div&gt;&lt;div&gt;What Key Resources do our Value Propositions require?&lt;/div&gt;&lt;div&gt;Our Distribution Channels? Customer Relationships?&lt;/div&gt;&lt;div&gt;Revenue Streams?&lt;/div&gt;&lt;div&gt;&lt;br&gt;&lt;/div&gt;&lt;div style=&quot;font-size: 10px&quot;&gt;&lt;font style=&quot;font-size: 10px&quot;&gt;&lt;b&gt;Types of resources&lt;/b&gt;&lt;/font&gt;&lt;/div&gt;&lt;div style=&quot;font-size: 10px&quot;&gt;&lt;font style=&quot;font-size: 10px&quot;&gt;Physical&lt;/font&gt;&lt;/div&gt;&lt;div style=&quot;font-size: 10px&quot;&gt;&lt;font style=&quot;font-size: 10px&quot;&gt;Intellectual (brand patents, copyrights, data)&lt;/font&gt;&lt;/div&gt;&lt;div style=&quot;font-size: 10px&quot;&gt;&lt;font style=&quot;font-size: 10px&quot;&gt;Human&lt;/font&gt;&lt;/div&gt;&lt;div style=&quot;font-size: 10px&quot;&gt;&lt;font style=&quot;font-size: 10px&quot;&gt;Financial&lt;/font&gt;&lt;/div&gt;" style="rounded=0;whiteSpace=wrap;html=1;shadow=0;labelBackgroundColor=none;strokeColor=#e8edf0;strokeWidth=5;fillColor=#ffffff;fontSize=12;fontColor=#2F5B7C;align=left;verticalAlign=top;spacing=30;" vertex="1" parent="1">
                    <mxGeometry x="520" y="658" width="420" height="450" as="geometry"/>
                </mxCell>
                <mxCell id="7" value="&lt;div style=&quot;font-size: 26px&quot;&gt;&lt;font style=&quot;font-size: 26px&quot;&gt;Value Propositions&lt;/font&gt;&lt;/div&gt;&lt;div&gt;&lt;br&gt;&lt;/div&gt;&lt;div&gt;&lt;span style=&quot;background-color: rgb(230, 230, 230);&quot;&gt;&lt;span style=&quot;font-family: &amp;quot;Segoe UI&amp;quot;;&quot;&gt;&lt;font style=&quot;font-size: 14px;&quot;&gt;To provide photographers with a platform where stock photo companies bid for their work, ensuring better returns while offering an easy and rewarding experience for both photographers and community voters.&lt;/font&gt;&lt;/span&gt;&lt;br&gt;&lt;/span&gt;&lt;/div&gt;&lt;div style=&quot;font-size: 10px&quot;&gt;&lt;br&gt;&lt;/div&gt;" style="rounded=0;whiteSpace=wrap;html=1;shadow=0;labelBackgroundColor=none;strokeColor=#e8edf0;strokeWidth=5;fillColor=#ffffff;fontSize=12;fontColor=#2F5B7C;align=left;verticalAlign=top;spacing=30;" vertex="1" parent="1">
                    <mxGeometry x="940" y="208" width="420" height="900" as="geometry"/>
                </mxCell>
                <mxCell id="8" value="&lt;div&gt;&lt;font style=&quot;font-size: 26px&quot;&gt;Customer Segments&lt;/font&gt;&lt;/div&gt;&lt;div&gt;&lt;br&gt;&lt;/div&gt;&lt;div style=&quot;font-size: 14px;&quot;&gt;&lt;span style=&quot;font-family: &amp;quot;Segoe UI&amp;quot;; background-color: rgb(230, 230, 230);&quot;&gt;We are creating value for a diverse range of customers, including individual photographers, stock photo buyers, and businesses seeking high-quality images for marketing and advertising purposes.&lt;br&gt;&lt;br&gt;Our most important customers are stock photo buyers, as they directly drive revenue for our platform by purchasing images, along with individual photographers who contribute valuable content.&lt;br&gt;&lt;br&gt;Our customer base can be classified as a Multi-sided Platform, as it serves both photographers who upload content and buyers who purchase images, facilitating interactions and transactions between these two distinct groups.&lt;/span&gt;&lt;br&gt;&lt;/div&gt;" style="rounded=0;whiteSpace=wrap;html=1;shadow=0;labelBackgroundColor=none;strokeColor=#e8edf0;strokeWidth=5;fillColor=#ffffff;fontSize=12;fontColor=#2F5B7C;align=left;verticalAlign=top;spacing=30;" vertex="1" parent="1">
                    <mxGeometry x="1780" y="208" width="420" height="900" as="geometry"/>
                </mxCell>
                <mxCell id="9" value="&lt;div&gt;&lt;font style=&quot;font-size: 26px&quot;&gt;Channels&lt;/font&gt;&lt;/div&gt;&lt;div style=&quot;font-size: 14px;&quot;&gt;&lt;span style=&quot;background-color: rgb(230, 230, 230);&quot;&gt;&lt;span style=&quot;font-family: &amp;quot;Segoe UI&amp;quot;;&quot;&gt;Our customer segments prefer to be reached through digital channels, such as social media, email, and our mobile app.&lt;br&gt;&lt;br&gt;We are currently engaging them through a combination of social media platforms&amp;nbsp;&lt;/span&gt;&lt;span style=&quot;font-family: &amp;quot;Segoe UI&amp;quot;;&quot;&gt;and word of mouth.&lt;/span&gt;&lt;span style=&quot;font-family: &amp;quot;Segoe UI&amp;quot;;&quot;&gt;&lt;br&gt;&lt;br&gt;Our channels are integrated by ensuring consistent messaging and branding across all platforms, creating a seamless experience for users as they interact with us through different touchpoints.&lt;br&gt;&lt;br&gt;Social media and our mobile app tend to perform the best in terms of user engagement and feedback, as they allow for real-time interaction and updates. &lt;br&gt;&lt;br&gt;Email marketing is one of the most cost-efficient channels, enabling us to reach a large audience with minimal expense.&lt;br&gt;&lt;br&gt;weekly updates via email and interactive content on social media, to keep our users engaged and informed.&lt;/span&gt;&lt;/span&gt;&lt;br&gt;&lt;/div&gt;" style="rounded=0;whiteSpace=wrap;html=1;shadow=0;labelBackgroundColor=none;strokeColor=#e8edf0;strokeWidth=5;fillColor=#ffffff;fontSize=12;fontColor=#2F5B7C;align=left;verticalAlign=top;spacing=30;" vertex="1" parent="1">
                    <mxGeometry x="1360" y="658" width="420" height="450" as="geometry"/>
                </mxCell>
                <mxCell id="10" value="&lt;div style=&quot;font-size: 26px&quot;&gt;&lt;font style=&quot;font-size: 26px&quot;&gt;Cost Structure&lt;/font&gt;&lt;/div&gt;&lt;div style=&quot;font-size: 14px;&quot;&gt;&lt;span id=&quot;docs-internal-guid-ea18a9d1-7fff-aaee-afc9-494054d1f65e&quot;&gt;&lt;p style=&quot;line-height:1.38;margin-top:12pt;margin-bottom:12pt;&quot; dir=&quot;ltr&quot;&gt;&lt;span style=&quot;font-family: Arial, sans-serif; color: rgb(0, 0, 0); font-variant-numeric: normal; font-variant-east-asian: normal; font-variant-alternates: normal; font-variant-position: normal; vertical-align: baseline; background-color: rgb(230, 230, 230);&quot;&gt;Our business is Value Driven, focusing on delivering a premium experience for photographers, stock image platforms, and voters.&lt;/span&gt;&lt;/p&gt;&lt;p style=&quot;line-height:1.38;margin-top:0pt;margin-bottom:0pt;&quot; dir=&quot;ltr&quot;&gt;&lt;span style=&quot;font-family: Arial, sans-serif; color: rgb(0, 0, 0); font-variant-numeric: normal; font-variant-east-asian: normal; font-variant-alternates: normal; font-variant-position: normal; vertical-align: baseline; background-color: rgb(230, 230, 230);&quot;&gt;- Server and Cloud Infrastructure Costs that will cover hosting, storage, and scaling as the platform grows.&lt;/span&gt;&lt;/p&gt;&lt;p style=&quot;line-height:1.38;margin-top:0pt;margin-bottom:0pt;&quot; dir=&quot;ltr&quot;&gt;&lt;span style=&quot;font-family: Arial, sans-serif; color: rgb(0, 0, 0); font-variant-numeric: normal; font-variant-east-asian: normal; font-variant-alternates: normal; font-variant-position: normal; vertical-align: baseline; background-color: rgb(230, 230, 230);&quot;&gt;- Development and Maintenance Costs that will include ongoing platform updates, bug fixes, and feature enhancements.&lt;/span&gt;&lt;/p&gt;&lt;p style=&quot;line-height:1.38;margin-top:0pt;margin-bottom:0pt;&quot; dir=&quot;ltr&quot;&gt;&lt;span style=&quot;font-family: Arial, sans-serif; color: rgb(0, 0, 0); font-variant-numeric: normal; font-variant-east-asian: normal; font-variant-alternates: normal; font-variant-position: normal; vertical-align: baseline; background-color: rgb(230, 230, 230);&quot;&gt;- Payment Processing Fees that will be incurred through transactions made via Bank APIs for handling money transfers.&lt;/span&gt;&lt;/p&gt;&lt;p style=&quot;line-height:1.38;margin-top:0pt;margin-bottom:0pt;&quot; dir=&quot;ltr&quot;&gt;&lt;span style=&quot;font-family: Arial, sans-serif; color: rgb(0, 0, 0); font-variant-numeric: normal; font-variant-east-asian: normal; font-variant-alternates: normal; font-variant-position: normal; vertical-align: baseline; background-color: rgb(230, 230, 230);&quot;&gt;- Customer Support and Operations Costs that will include managing user inquiries, resolving issues, and maintaining platform stability.&lt;/span&gt;&lt;/p&gt;&lt;p style=&quot;line-height:1.38;margin-top:0pt;margin-bottom:0pt;&quot; dir=&quot;ltr&quot;&gt;&lt;span style=&quot;font-family: Arial, sans-serif; color: rgb(0, 0, 0); font-variant-numeric: normal; font-variant-east-asian: normal; font-variant-alternates: normal; font-variant-position: normal; vertical-align: baseline; background-color: rgb(230, 230, 230);&quot;&gt;- API Integration Costs for using external services like Google Maps and Bank APIs, including any associated usage fees.&lt;/span&gt;&lt;/p&gt;&lt;p style=&quot;line-height:1.38;margin-top:0pt;margin-bottom:0pt;&quot; dir=&quot;ltr&quot;&gt;&lt;span style=&quot;font-family: Arial, sans-serif; color: rgb(0, 0, 0); font-variant-numeric: normal; font-variant-east-asian: normal; font-variant-alternates: normal; font-variant-position: normal; vertical-align: baseline; background-color: rgb(230, 230, 230);&quot;&gt;- Marketing and Customer Acquisition Costs that will be spent on promoting the platform to photographers, companies, and voters.&lt;/span&gt;&lt;/p&gt;&lt;div&gt;&lt;span style=&quot;font-family: Arial, sans-serif; color: rgb(0, 0, 0); background-color: transparent; font-variant-numeric: normal; font-variant-east-asian: normal; font-variant-alternates: normal; font-variant-position: normal; vertical-align: baseline;&quot;&gt;&lt;br&gt;&lt;/span&gt;&lt;/div&gt;&lt;/span&gt;&lt;/div&gt;" style="rounded=0;whiteSpace=wrap;html=1;shadow=0;labelBackgroundColor=none;strokeColor=#e8edf0;strokeWidth=5;fillColor=#ffffff;fontSize=12;fontColor=#2F5B7C;align=left;verticalAlign=top;spacing=30;" vertex="1" parent="1">
                    <mxGeometry x="100" y="1108" width="1050" height="330" as="geometry"/>
                </mxCell>
                <mxCell id="11" value="&lt;div style=&quot;font-size: 26px&quot;&gt;&lt;font style=&quot;font-size: 26px&quot;&gt;Revenue Streams&lt;/font&gt;&lt;/div&gt;&lt;div&gt;&lt;br&gt;&lt;/div&gt;&lt;div style=&quot;font-size: 14px;&quot;&gt;&lt;span style=&quot;font-family: &amp;quot;Segoe UI&amp;quot;; background-color: rgb(230, 230, 230);&quot;&gt;- Primary revenue stream&lt;br&gt;will be through getting a commission from transactions settled with us as the intermediary party.&lt;/span&gt;&lt;/div&gt;&lt;div style=&quot;font-size: 14px;&quot;&gt;&lt;span style=&quot;background-color: rgb(230, 230, 230);&quot;&gt;&lt;span style=&quot;font-family: 'Segoe UI';&quot;&gt;- Primary revenue stream is inconsistent in the profit it generates due to the photographers deciding on the price of their photos.&lt;/span&gt;&lt;br&gt;&lt;/span&gt;&lt;/div&gt;&lt;div style=&quot;font-size: 14px;&quot;&gt;&lt;span style=&quot;font-family: &amp;quot;Segoe UI&amp;quot;; background-color: rgb(230, 230, 230);&quot;&gt;- Secondary revenue stream will be advertisements for companies and/or products displayed on the website.&lt;br&gt;- High margin revenue streams from advertisements.&lt;/span&gt;&lt;span style=&quot;font-family: 'Segoe UI';&quot;&gt;&lt;br&gt;&lt;/span&gt;&lt;/div&gt;" style="rounded=0;whiteSpace=wrap;html=1;shadow=0;labelBackgroundColor=none;strokeColor=#e8edf0;strokeWidth=5;fillColor=#ffffff;fontSize=12;fontColor=#2F5B7C;align=left;verticalAlign=top;spacing=30;" vertex="1" parent="1">
                    <mxGeometry x="1150" y="1108" width="1050" height="330" as="geometry"/>
                </mxCell>
                <mxCell id="12" value="The Business Model Canvas&lt;br&gt;" style="text;html=1;resizable=0;points=[];autosize=1;align=left;verticalAlign=top;spacingTop=-4;fontSize=60;fontColor=#2F5B7C;" vertex="1" parent="1">
                    <mxGeometry x="100" y="98" width="780" height="70" as="geometry"/>
                </mxCell>
                <mxCell id="13" value="" style="html=1;verticalLabelPosition=bottom;labelBackgroundColor=#ffffff;verticalAlign=top;shadow=0;dashed=0;strokeWidth=4;shape=mxgraph.ios7.misc.check;strokeColor=#2F5B7C;fillColor=#ffffff;gradientColor=none;fontSize=12;fontColor=#2F5B7C;align=left;" vertex="1" parent="1">
                    <mxGeometry x="900" y="240" width="20" height="16" as="geometry"/>
                </mxCell>
                <mxCell id="14" value="" style="shape=mxgraph.signs.travel.present;html=1;fillColor=#2F5B7C;strokeColor=none;verticalLabelPosition=bottom;verticalAlign=top;align=center;shadow=0;labelBackgroundColor=none;fontSize=12;fontColor=#2F5B7C;" vertex="1" parent="1">
                    <mxGeometry x="1310" y="223" width="31" height="40" as="geometry"/>
                </mxCell>
                <mxCell id="15" value="" style="html=1;verticalLabelPosition=bottom;labelBackgroundColor=#ffffff;verticalAlign=top;strokeWidth=3;strokeColor=none;fillColor=#2F5B7C;shadow=0;dashed=0;shape=mxgraph.ios7.icons.heart;fontSize=12;fontColor=#2F5B7C;align=left;" vertex="1" parent="1">
                    <mxGeometry x="1715.0000000000005" y="230" width="41" height="36" as="geometry"/>
                </mxCell>
                <mxCell id="19" value="" style="shadow=0;dashed=0;html=1;strokeColor=none;labelPosition=center;verticalLabelPosition=bottom;verticalAlign=top;shape=mxgraph.mscae.cloud.data_factory;fillColor=#2F5B7C;labelBackgroundColor=none;fontSize=10;fontColor=#2F5B7C;align=left;" vertex="1" parent="1">
                    <mxGeometry x="870" y="678" width="50" height="50" as="geometry"/>
                </mxCell>
                <mxCell id="20" value="" style="shape=mxgraph.signs.transportation.truck_6;html=1;fillColor=#2F5B7C;strokeColor=none;verticalLabelPosition=bottom;verticalAlign=top;align=center;shadow=0;labelBackgroundColor=none;fontSize=10;fontColor=#2F5B7C;aspect=fixed;" vertex="1" parent="1">
                    <mxGeometry x="1720" y="678" width="40" height="50" as="geometry"/>
                </mxCell>
                <mxCell id="21" value="" style="shape=image;html=1;verticalAlign=top;verticalLabelPosition=bottom;labelBackgroundColor=#ffffff;imageAspect=0;aspect=fixed;image=https://cdn4.iconfinder.com/data/icons/evil-icons-user-interface/64/price-128.png;shadow=0;strokeColor=#e8edf0;strokeWidth=3;fillColor=#2F5B7C;gradientColor=none;fontSize=10;fontColor=#2F5B7C;align=left;" vertex="1" parent="1">
                    <mxGeometry x="1084" y="1128" width="58" height="58" as="geometry"/>
                </mxCell>
                <mxCell id="22" value="" style="dashed=0;html=1;shape=mxgraph.aws3.checklist_cost;fillColor=#2F5B7C;gradientColor=none;shadow=0;labelBackgroundColor=none;strokeColor=none;strokeWidth=3;fontSize=10;fontColor=#2F5B7C;align=left;" vertex="1" parent="1">
                    <mxGeometry x="2106.5" y="1119.5" width="67.5" height="75" as="geometry"/>
                </mxCell>
                <mxCell id="23" value="" style="shadow=0;dashed=0;html=1;strokeColor=none;fillColor=#2F5B7C;labelPosition=center;verticalLabelPosition=bottom;verticalAlign=top;outlineConnect=0;shape=mxgraph.office.concepts.link;labelBackgroundColor=none;fontSize=10;fontColor=#000000;align=left;" vertex="1" parent="1">
                    <mxGeometry x="439" y="229" width="61" height="21" as="geometry"/>
                </mxCell>
                <mxCell id="24" value="" style="group" vertex="1" connectable="0" parent="1">
                    <mxGeometry x="2106.5" y="233" width="69" height="50" as="geometry"/>
                </mxCell>
                <mxCell id="25" value="" style="shadow=0;dashed=0;html=1;strokeColor=#FFFFFF;labelPosition=center;verticalLabelPosition=bottom;verticalAlign=top;outlineConnect=0;shape=mxgraph.office.users.user;fillColor=#2F5B7C;labelBackgroundColor=none;fontSize=10;fontColor=#000000;align=left;strokeWidth=2;" vertex="1" parent="24">
                    <mxGeometry x="31" y="-5" width="46" height="50" as="geometry"/>
                </mxCell>
                <mxCell id="26" value="" style="shadow=0;dashed=0;html=1;strokeColor=#FFFFFF;labelPosition=center;verticalLabelPosition=bottom;verticalAlign=top;outlineConnect=0;shape=mxgraph.office.users.user;fillColor=#2F5B7C;labelBackgroundColor=none;fontSize=10;fontColor=#000000;align=left;strokeWidth=2;" vertex="1" parent="24">
                    <mxGeometry width="46" height="50" as="geometry"/>
                </mxCell>
            </root>
        </mxGraphModel>
    </diagram>
</mxfile>